<svg xmlns="http://www.w3.org/2000/svg" width="96" height="96" viewBox="0 0 96 96" fill="none">
<path d="M30 34 C30 30 66 30 66 34 L70 73 C70 75 68 76 65 76 L31 76 C28 76 26 75 26 73 Z" fill="#EFE9DB" stroke="#D2C8B2" stroke-width="2.5"></path>
<path d="M30 34 L37 26 L59 26 L66 34 Z" fill="#DDD2BC"></path>
<path d="M48 46 L48 70" stroke="#C9A85E" stroke-width="3" stroke-linecap="round"></path>
<g fill="#D9B85E"><ellipse cx="43" cy="52" rx="4" ry="2.4" transform="rotate(-40 43 52)"></ellipse><ellipse cx="53" cy="52" rx="4" ry="2.4" transform="rotate(40 53 52)"></ellipse><ellipse cx="42" cy="60" rx="4" ry="2.4" transform="rotate(-40 42 60)"></ellipse><ellipse cx="54" cy="60" rx="4" ry="2.4" transform="rotate(40 54 60)"></ellipse></g>
</svg>