<svg xmlns="http://www.w3.org/2000/svg" width="96" height="96" viewBox="0 0 96 96" fill="none">
<path d="M34 36 L62 36 L58 74 C58 75 57 76 56 76 L40 76 C39 76 38 75 38 74 Z" fill="#EBF2F6" stroke="#C2D6E0" stroke-width="2"></path>
<path d="M35 48 L61 48 L58 74 C58 75 57 76 56 76 L40 76 C39 76 38 75 38 74 Z" fill="#F4E08A"></path><path d="M56 24 L50 50" stroke="#5FA854" stroke-width="4" stroke-linecap="round"></path>
<path d="M58 30 C65 27 69 33 66 38 C61 39 55 35 58 30 Z" fill="#F2D24E"></path>
<g fill="#FBF7EF" opacity="0.8"><circle cx="44" cy="58" r="2"></circle><circle cx="50" cy="64" r="2"></circle><circle cx="46" cy="68" r="1.6"></circle></g>
</svg>