<svg xmlns="http://www.w3.org/2000/svg" width="96" height="96" viewBox="0 0 96 96" fill="none">
<rect x="38" y="26" width="16" height="9" rx="2" fill="#2E6FA0"></rect>
<path d="M34 35 L58 35 C60 35 62 37 62 39 L62 72 C62 75 60 76 57 76 L37 76 C34 76 32 75 32 72 L32 41 C32 37 34 35 34 35 Z" fill="#3E97D1"></path>
<path d="M62 44 C70 44 70 58 62 58" stroke="#2E6FA0" stroke-width="5" fill="none" stroke-linecap="round"></path>
<rect x="37" y="48" width="20" height="18" rx="2" fill="#FBF7EF"></rect>
<g fill="#9FD0EC"><circle cx="44" cy="55" r="3"></circle><circle cx="51" cy="59" r="2.5"></circle></g>
</svg>